<svg width="65" height="64" viewBox="0 0 65 64" fill="none" xmlns="http://www.w3.org/2000/svg">
<g clip-path="url(#clip0_111_34)">
<path d="M58.3227 48.7106C57.9658 48.359 57.4813 48.1614 56.9763 48.1614H54.8012V23.6467C60.5731 22.7446 64.9997 17.811 64.9997 11.878C64.3912 -3.90952 41.4 -3.90501 40.7939 11.8781C40.7939 17.811 45.2205 22.7446 50.9926 23.6466V48.1612H42.7541L46.7378 52.0837C47.8169 53.1461 48.4111 54.5587 48.4111 56.0612C48.4111 57.5637 47.8169 58.9764 46.7378 60.0387L42.7541 63.9612H56.9763C57.4814 63.9612 57.9658 63.7636 58.3227 63.412L64.4419 57.387C64.799 57.0354 64.9997 56.5585 64.9997 56.0612C64.9997 55.5639 64.7991 55.0871 64.4419 54.7355L58.3227 48.7106ZM51.877 15.7614C51.3896 15.7614 50.9022 15.5784 50.5305 15.2121L48.4909 13.2039C46.7727 11.3826 49.3342 8.86036 51.1839 10.5522L51.8771 11.2346L54.61 8.54386C56.4593 6.85223 59.0214 9.37373 57.3031 11.1955L53.2237 15.2121C52.8517 15.5784 52.3643 15.7614 51.877 15.7614Z" fill="white"/>
<path d="M44.0455 54.7351L37.9265 48.7101C37.5695 48.3585 37.0851 48.1609 36.58 48.1609H34.4047V43.7296C40.1766 42.8275 44.6032 37.894 44.6032 31.961C43.9947 16.1735 21.0035 16.178 20.3975 31.9611C20.3975 37.894 24.8241 42.8276 30.5961 43.7296V48.1609H22.3576L26.3414 52.0834C28.5688 54.2765 28.5688 57.8451 26.3414 60.0384L22.3576 63.9609H36.5799C37.0851 63.9609 37.5694 63.7632 37.9264 63.4116L44.0454 57.3866C44.7892 56.6545 44.7892 55.4674 44.0455 54.7351ZM31.4805 35.8444C30.9931 35.8444 30.5057 35.6614 30.134 35.2951L28.0944 33.2869C26.3762 31.4656 28.9377 28.9434 30.7874 30.6352L31.4806 31.3176L34.2135 28.6269C36.0628 26.9352 38.6249 29.4567 36.9066 31.2785L32.8272 35.2951C32.4552 35.6614 31.9678 35.8444 31.4805 35.8444Z" fill="white"/>
<path d="M23.6479 54.7354L17.5288 48.7104C17.1717 48.3588 16.6874 48.1612 16.1823 48.1612H14.0072V23.6467C19.7792 22.7445 24.2058 17.811 24.2058 11.878C23.5972 -3.90959 0.606074 -3.90497 0 11.8782C0 17.811 4.4266 22.7447 10.1987 23.6467V48.1613H1.9043C0.852617 48.1613 0 49.0008 0 50.0363V62.0863C0 63.1218 0.852617 63.9613 1.9043 63.9613H16.1823C16.6874 63.9613 17.1717 63.7637 17.5288 63.412L23.6479 57.387C24.3916 56.6548 24.3916 55.4677 23.6479 54.7354ZM11.083 15.7613C10.5956 15.7613 10.1083 15.5783 9.73654 15.212L7.69691 13.2038C5.97873 11.3825 8.54014 8.86028 10.3898 10.5522L11.083 11.2345L13.8159 8.54378C15.6653 6.85216 18.2273 9.37366 16.509 11.1954L12.4296 15.212C12.0578 15.5783 11.5704 15.7613 11.083 15.7613Z" fill="white"/>
</g>
<defs>
<clipPath id="clip0_111_34">
<rect width="65" height="64" fill="white"/>
</clipPath>
</defs>
</svg>
