<svg width="72" height="72" viewBox="0 0 72 72" fill="none" xmlns="http://www.w3.org/2000/svg">
<path d="M18.4081 23.0194C18.5123 21.662 18.9893 20.3597 19.7864 19.256L29.9927 5.22376C30.6817 4.27606 31.5851 3.50482 32.6292 2.97304C33.6732 2.44127 34.8283 2.16406 36 2.16406C37.1717 2.16406 38.3268 2.44127 39.3708 2.97304C40.4149 3.50482 41.3183 4.27606 42.0073 5.22376L52.2136 19.2555C53.0108 20.3594 53.4878 21.6619 53.592 23.0195C48.3589 19.6314 42.2331 17.8836 36 18.0003C29.767 17.8836 23.6411 19.6313 18.4081 23.0194ZM60.75 58.5003H11.25C10.3549 58.5003 9.49645 58.8559 8.86351 59.4888C8.23058 60.1218 7.875 60.9802 7.875 61.8753C7.875 62.7704 8.23058 63.6289 8.86351 64.2618C9.49645 64.8947 10.3549 65.2503 11.25 65.2503H60.75C61.6451 65.2503 62.5035 64.8947 63.1365 64.2618C63.7694 63.6289 64.125 62.7704 64.125 61.8753C64.125 60.9802 63.7694 60.1218 63.1365 59.4888C62.5035 58.8559 61.6451 58.5003 60.75 58.5003ZM36 46.1253C35.7775 46.1253 35.56 46.1913 35.375 46.3149C35.19 46.4385 35.0458 46.6142 34.9606 46.8198C34.8755 47.0254 34.8532 47.2516 34.8966 47.4698C34.94 47.688 35.0472 47.8885 35.2045 48.0458C35.3618 48.2031 35.5623 48.3103 35.7805 48.3537C35.9988 48.3971 36.225 48.3748 36.4305 48.2897C36.6361 48.2045 36.8118 48.0603 36.9354 47.8753C37.059 47.6903 37.125 47.4728 37.125 47.2503C37.1247 46.952 37.0061 46.6661 36.7952 46.4551C36.5843 46.2442 36.2983 46.1256 36 46.1253ZM36 32.6253C41.3414 32.6253 45.8168 28.1302 46.9593 22.1297C39.868 19.6238 32.132 19.6238 25.0407 22.1298C26.1833 28.1303 30.6586 32.6253 36 32.6253ZM10.3317 67.5003C10.5623 68.1569 10.9908 68.7259 11.5582 69.1289C12.1257 69.5318 12.8041 69.7489 13.5 69.7503H58.5C59.1959 69.7489 59.8743 69.5318 60.4418 69.1289C61.0092 68.7259 61.4377 68.1569 61.6683 67.5003H10.3317ZM25.6092 36.0003H46.3909L52.2136 27.9946C52.7381 27.2654 53.1258 26.4471 53.3576 25.5793C52.0314 24.5591 50.5925 23.6943 49.0691 23.002C47.583 29.8147 42.2958 34.8753 36 34.8753C29.7042 34.8753 24.417 29.8147 22.9308 23.0021C21.4075 23.6944 19.9686 24.5592 18.6423 25.5793C18.8741 26.4472 19.2618 27.2658 19.7863 27.9951L25.6092 36.0003ZM54.5219 37.9625C55.0504 38.5779 55.4394 39.3004 55.662 40.0805C55.8847 40.8605 55.9357 41.6795 55.8117 42.4811L53.9077 54.8556C53.833 55.3366 53.6949 55.8056 53.497 56.2503H54.7862L61.2304 52.4911C62.4219 51.7961 63.3165 50.6874 63.744 49.3759C64.1716 48.0643 64.1023 46.6414 63.5493 45.3777L58.7549 34.4205C58.2725 33.323 57.5061 32.3741 56.5347 31.6716C55.5633 30.9691 54.4222 30.5384 53.2289 30.4238L49.1729 36.0003H50.2526C51.0637 35.9999 51.8652 36.175 52.6022 36.5137C53.3391 36.8524 53.9941 37.3467 54.5219 37.9625ZM18.412 42.1384C18.3416 41.658 18.3751 41.1681 18.5101 40.7018C18.6451 40.2355 18.8785 39.8035 19.1946 39.4351C19.5107 39.0666 19.9022 38.7702 20.3425 38.5658C20.7829 38.3614 21.262 38.2538 21.7474 38.2503H50.2526C50.7381 38.2538 51.2173 38.3615 51.6576 38.5659C52.098 38.7703 52.4895 39.0667 52.8056 39.4353C53.1217 39.8038 53.3551 40.2358 53.4901 40.7022C53.6251 41.1686 53.6585 41.6585 53.5881 42.1389L51.6841 54.5134C51.5835 55.1603 51.2966 55.7639 50.8583 56.2503H21.1416C20.7034 55.7641 20.4164 55.1607 20.3159 54.5139L18.412 42.1384ZM32.625 47.2503C32.625 47.9178 32.8229 48.5703 33.1938 49.1254C33.5646 49.6804 34.0917 50.1129 34.7084 50.3684C35.3251 50.6238 36.0037 50.6907 36.6584 50.5605C37.3131 50.4302 37.9145 50.1088 38.3865 49.6368C38.8585 49.1648 39.1799 48.5634 39.3102 47.9087C39.4404 47.254 39.3735 46.5755 39.1181 45.9588C38.8626 45.342 38.4301 44.8149 37.875 44.4441C37.32 44.0732 36.6675 43.8753 36 43.8753C35.1052 43.8763 34.2473 44.2322 33.6146 44.8649C32.9819 45.4976 32.626 46.3555 32.625 47.2503ZM10.7699 52.4913L17.2138 56.2503H18.5029C18.3051 55.8059 18.167 55.3373 18.0923 54.8567L16.1884 42.4806C16.065 41.679 16.1164 40.8603 16.3391 40.0805C16.5618 39.3007 16.9504 38.5782 17.4785 37.9627C18.0065 37.3472 18.6614 36.8531 19.3982 36.5144C20.1351 36.1757 20.9365 36.0003 21.7474 36.0003H22.8273L18.771 30.4238C17.5778 30.5381 16.4366 30.9688 15.4652 31.6712C14.4939 32.3737 13.7275 33.3225 13.2451 34.4199L8.45075 45.3775C7.89779 46.6413 7.82852 48.0643 8.2561 49.3759C8.68368 50.6875 9.57831 51.7962 10.7699 52.4913Z" fill="#FCA028"/>
</svg>
