<svg width="73" height="72" viewBox="0 0 73 72" fill="none" xmlns="http://www.w3.org/2000/svg">
<path d="M63.875 14.625C67.0247 14.625 69.5781 12.1066 69.5781 9C69.5781 5.8934 67.0247 3.375 63.875 3.375C60.7253 3.375 58.1719 5.8934 58.1719 9C58.1719 12.1066 60.7253 14.625 63.875 14.625Z" fill="white"/>
<path d="M26.2344 33.75H28.5156V47.25H26.2344V33.75Z" fill="white"/>
<path d="M33.0781 36H39.9219V41.0096C43.2685 37.2577 48.1572 34.875 53.6094 34.875C56.9354 34.875 60.0459 35.7716 62.7344 37.3106V16.785C61.385 16.5938 60.1463 16.0695 59.1026 15.2977L52.1254 22.1783C52.3399 22.6193 52.4688 23.1053 52.4688 23.625C52.4688 25.4858 50.9335 27 49.0469 27C47.1603 27 45.625 25.4858 45.625 23.625C45.625 23.1053 45.7539 22.6193 45.9683 22.1794L43.67 19.9125C43.2228 20.1229 42.7301 20.25 42.2031 20.25C41.6762 20.25 41.1834 20.1229 40.7374 19.9114L35.0172 25.5533C35.2305 25.9943 35.3594 26.4803 35.3594 27C35.3594 28.8608 33.8241 30.375 31.9375 30.375C30.0509 30.375 28.5156 28.8608 28.5156 27C28.5156 25.1392 30.0509 23.625 31.9375 23.625C32.4645 23.625 32.9572 23.7521 33.4032 23.9636L39.1234 18.3217C38.9101 17.8807 38.7812 17.3948 38.7812 16.875C38.7812 15.0143 40.3165 13.5 42.2031 13.5C44.0897 13.5 45.625 15.0143 45.625 16.875C45.625 17.3948 45.4961 17.8807 45.2817 18.3206L47.58 20.5875C48.0272 20.3771 48.5199 20.25 49.0469 20.25C49.5738 20.25 50.0666 20.3771 50.5126 20.5886L57.4886 13.7081C56.932 12.9758 56.4986 12.1489 56.226 11.25H3.42188V51.75H35.4175C35.4655 50.9873 35.551 50.2346 35.6924 49.5H33.0781V36ZM10.2656 13.5H26.2344V15.75H10.2656V13.5ZM10.2656 18H26.2344V20.25H10.2656V18ZM10.2656 22.5H26.2344V24.75H10.2656V22.5ZM10.2656 27H26.2344V29.25H10.2656V27ZM5.70312 13.5H7.98438V15.75H5.70312V13.5ZM5.70312 18H7.98438V20.25H5.70312V18ZM5.70312 22.5H7.98438V24.75H5.70312V22.5ZM5.70312 27H7.98438V29.25H5.70312V27ZM12.5469 49.5H5.70312V38.25H12.5469V49.5ZM21.6719 49.5H14.8281V40.5H21.6719V49.5ZM30.7969 49.5H23.9531V31.5H30.7969V49.5Z" fill="white"/>
<path d="M54.75 37.1826V41.6826C60.5056 42.2496 65.0156 47.0522 65.0156 52.8752C65.0156 54.5211 64.6461 56.0815 63.9993 57.4922L67.9562 59.7456C68.985 57.6666 69.5781 55.3401 69.5781 52.8752C69.5781 44.5705 63.023 37.7631 54.75 37.1826Z" fill="white"/>
<path d="M7.98438 40.5H10.2656V47.25H7.98438V40.5Z" fill="white"/>
<path d="M49.0469 24.75C49.6768 24.75 50.1875 24.2463 50.1875 23.625C50.1875 23.0037 49.6768 22.5 49.0469 22.5C48.4169 22.5 47.9062 23.0037 47.9062 23.625C47.9062 24.2463 48.4169 24.75 49.0469 24.75Z" fill="white"/>
<path d="M17.1094 42.75H19.3906V47.25H17.1094V42.75Z" fill="white"/>
<path d="M42.2031 18C42.8331 18 43.3438 17.4963 43.3438 16.875C43.3438 16.2537 42.8331 15.75 42.2031 15.75C41.5732 15.75 41.0625 16.2537 41.0625 16.875C41.0625 17.4963 41.5732 18 42.2031 18Z" fill="white"/>
<path d="M37.6406 38.25H35.3594V47.25H36.2844C36.6426 46.1801 37.0943 45.1519 37.6406 44.1799V38.25Z" fill="white"/>
<path d="M42.2031 52.8752C42.2031 47.0522 46.7132 42.2485 52.4688 41.6826V37.1826C44.1958 37.7631 37.6406 44.5705 37.6406 52.8752C37.6406 55.3401 38.2338 57.6666 39.2626 59.7456L43.2194 57.4922C42.5727 56.0815 42.2031 54.5211 42.2031 52.8752Z" fill="white"/>
<path d="M44.4844 52.875C44.4844 57.8374 48.5781 61.875 53.6094 61.875C58.6407 61.875 62.7344 57.8374 62.7344 52.875C62.7344 47.9126 58.6407 43.875 53.6094 43.875C48.5781 43.875 44.4844 47.9126 44.4844 52.875ZM53.6094 46.125C57.3837 46.125 60.4531 49.1524 60.4531 52.875C60.4531 56.5976 57.3837 59.625 53.6094 59.625C49.835 59.625 46.7656 56.5976 46.7656 52.875C46.7656 49.1524 49.835 46.125 53.6094 46.125Z" fill="white"/>
<path d="M53.6092 64.1252C49.804 64.1252 46.4381 62.2712 44.3644 59.4385L40.3916 61.7009C43.266 65.8769 48.1182 68.6252 53.6092 68.6252C59.1001 68.6252 63.9524 65.8769 66.8267 61.7009L62.8539 59.4385C60.7803 62.2712 57.4143 64.1252 53.6092 64.1252Z" fill="white"/>
<path d="M31.9375 28.125C32.5674 28.125 33.0781 27.6213 33.0781 27C33.0781 26.3787 32.5674 25.875 31.9375 25.875C31.3076 25.875 30.7969 26.3787 30.7969 27C30.7969 27.6213 31.3076 28.125 31.9375 28.125Z" fill="white"/>
<path d="M53.6094 57.375C56.1292 57.375 58.1719 55.3603 58.1719 52.875C58.1719 50.3897 56.1292 48.375 53.6094 48.375C51.0896 48.375 49.0469 50.3897 49.0469 52.875C49.0469 55.3603 51.0896 57.375 53.6094 57.375Z" fill="white"/>
</svg>
