<svg width="72" height="72" viewBox="0 0 72 72" fill="none" xmlns="http://www.w3.org/2000/svg">
<path fill-rule="evenodd" clip-rule="evenodd" d="M18.0688 8.78723C18.8617 8.97595 19.6192 9.29039 20.3133 9.71775L21.7718 9.07003L23.4908 10.789L22.8433 12.2472C23.2709 12.9414 23.5852 13.6991 23.7739 14.4923L25.262 15.065V17.496L23.7736 18.0689C23.5849 18.8619 23.2705 19.6193 22.8431 20.3134L23.491 21.772L21.772 23.491L20.314 22.8434C19.6197 23.2709 18.862 23.5853 18.0688 23.7741L17.496 25.262H15.065L14.4921 23.7736C13.6991 23.5849 12.9417 23.2705 12.2476 22.8431L10.789 23.491L9.07003 21.772L9.71761 20.314C9.28997 19.6197 8.97567 18.862 8.78695 18.0688L7.29886 17.496V15.065L8.78709 14.4921C8.97581 13.699 9.29025 12.9416 9.71761 12.2475L9.06989 10.789L10.7889 9.07003L12.2475 9.71775C12.9416 9.29039 13.699 8.97595 14.492 8.78723L15.0649 7.29886H17.4959L18.0688 8.78723ZM22.2209 5.45386C21.9068 5.66227 21.7052 6.02409 21.7194 6.42839C21.7412 7.04728 22.2607 7.53131 22.8795 7.50952L25.283 7.42317C26.0378 7.45003 26.6141 6.73059 26.404 5.99203L25.7223 3.60267C25.5524 3.00558 24.9306 2.65936 24.3336 2.82923C23.9355 2.94244 23.649 3.25673 23.5526 3.63066C21.3421 2.35786 18.8331 1.6875 16.2803 1.6875C8.22108 1.6875 1.6875 8.22122 1.6875 16.2804C1.6875 18.9188 2.40412 21.5125 3.76172 23.775C4.07967 24.3065 4.76831 24.4797 5.29988 24.1618C5.8313 23.8438 6.00455 23.1552 5.68659 22.6236C4.52967 20.6956 3.9375 18.5278 3.9375 16.2804C3.9375 9.4635 9.46336 3.9375 16.2803 3.9375C18.3673 3.9375 20.3946 4.44853 22.2209 5.45386ZM9.00802 28.9309C11.2198 30.2041 13.7263 30.8732 16.2804 30.8732C24.3397 30.8732 30.8734 24.3397 30.8734 16.2804C30.8734 13.7003 30.1957 11.1772 28.8966 8.94741C28.586 8.41106 27.8993 8.22811 27.363 8.53875C26.8266 8.84939 26.6437 9.53606 26.9543 10.0724C28.056 11.9633 28.6235 14.0929 28.6235 16.2804C28.6235 23.0974 23.0975 28.6232 16.2806 28.6232C14.1951 28.6232 12.1667 28.1107 10.3417 27.1059C10.6549 26.8973 10.8558 26.5361 10.8416 26.1323C10.8198 25.5135 10.3004 25.0294 9.68147 25.0512L7.27805 25.1376C6.52317 25.111 5.94675 25.83 6.15698 26.5687L6.83873 28.9581C7.00861 29.555 7.63045 29.9014 8.22741 29.7315C8.62495 29.6183 8.91127 29.3044 9.00802 28.9309ZM32.8511 13.2588H65.2535C65.6494 13.2588 65.9732 13.5827 65.9732 13.9784V46.2555H7.15177V31.9348C5.9992 31.6631 5.022 30.7924 4.6748 29.5754L3.99305 27.186C3.92372 26.9429 3.88294 26.6981 3.86887 26.4555C3.49411 26.3571 3.1358 26.1949 2.8125 25.9737V49.8075C2.8125 52.6615 5.14758 54.9967 8.0017 54.9967H25.9554V63.2412H18.0568C15.6229 63.2412 13.6316 64.8322 13.6316 66.7769V70.3125H59.4937V66.7768C59.4937 64.8321 57.5024 63.241 55.0685 63.241H47.1698V54.9966H65.1234C67.9774 54.9966 70.3125 52.6614 70.3125 49.8074V14.1086C70.3125 11.2546 67.9774 8.91942 65.1234 8.91942H31.4297C32.0996 10.2959 32.5775 11.7534 32.8511 13.2588ZM29.4555 31.4923C28.9676 31.8732 28.2632 31.7867 27.8821 31.2989C27.5012 30.8111 27.5877 30.1067 28.0755 29.7256L37.7933 22.1588C38.097 21.9216 38.4846 21.8658 38.8257 21.9749L47.8901 24.912L54.9622 17.7795L54.8518 17.7892C54.2329 17.8426 53.6878 17.3841 53.6345 16.7653C53.5811 16.1464 54.0397 15.6014 54.6584 15.5481L57.8218 15.2706C58.5557 15.2073 59.1505 15.8656 59.0269 16.5826L58.6818 19.6701C58.6139 20.2866 58.059 20.7312 57.4425 20.6632C56.8415 20.5969 56.4038 20.0678 56.4453 19.47L48.9963 26.9827C48.7086 27.2715 48.273 27.3928 47.8581 27.2596L38.7021 24.2921L29.4555 31.4923ZM27.1332 36.0311H30.3979C30.94 36.0311 31.3823 36.4733 31.3823 37.0155V44.0058H26.1488V37.0155C26.1488 36.4732 26.5909 36.0311 27.1332 36.0311ZM56.2863 22.6863H59.551C60.0931 22.6863 60.5354 23.1286 60.5354 23.6707V44.0056H55.3019V23.6707C55.3019 23.1286 55.744 22.6863 56.2863 22.6863ZM46.5685 31.7327H49.8333C50.3755 31.7327 50.8177 32.175 50.8177 32.7173V44.0058H45.5842V32.7173C45.5842 32.1749 46.0264 31.7327 46.5685 31.7327ZM36.8509 29.5515H40.1157C40.6578 29.5515 41.1 29.9936 41.1 30.5359V44.0058H35.8667V30.5359C35.8665 29.9936 36.3087 29.5515 36.8509 29.5515ZM16.2804 12.0407C13.9388 12.0407 12.0407 13.9388 12.0407 16.2804C12.0407 18.6221 13.9388 20.5201 16.2804 20.5201C18.6221 20.5201 20.5201 18.6221 20.5201 16.2804C20.5201 13.9388 18.6221 12.0407 16.2804 12.0407Z" fill="#FCA028"/>
</svg>
