<svg width="65" height="64" viewBox="0 0 65 64" fill="none" xmlns="http://www.w3.org/2000/svg">
<path fill-rule="evenodd" clip-rule="evenodd" d="M12.7 12.281V6.08887C12.7 4.67749 13.8691 3.52637 15.3025 3.52637H61.1279C62.5614 3.52637 63.7305 4.67749 63.7305 6.08887V37.7591C63.7305 39.1704 62.5612 40.3216 61.1279 40.3216H54.8391V17.3435C54.8391 14.5524 52.5322 12.281 49.6975 12.281H12.7ZM3.87207 14.781C2.43864 14.781 1.26953 15.9321 1.26953 17.3435V49.9362C1.26953 51.3476 2.43864 52.4987 3.87207 52.4987H12.7V59.8465C12.7 60.0976 12.8407 60.3122 13.073 60.4159C13.3053 60.5195 13.562 60.4817 13.7536 60.3161L22.7933 52.4987H49.6976C51.131 52.4987 52.3001 51.3476 52.3001 49.9362V17.3435C52.3001 15.9321 51.131 14.781 49.6976 14.781H3.87207ZM38.6462 35.711C39.1069 35.711 39.4801 35.3434 39.4801 34.8899V32.39C39.4801 31.9365 39.1069 31.5689 38.6462 31.5689C36.1461 31.5689 34.8917 28.5867 36.6594 26.8462C36.985 26.5256 36.985 26.0056 36.6594 25.685L34.864 23.9172C34.5384 23.5966 34.0102 23.5966 33.6846 23.9172C31.9169 25.6577 28.8882 24.4227 28.8882 21.9611C28.8882 21.5075 28.5147 21.14 28.0542 21.14H25.5153C25.0548 21.14 24.6813 21.5075 24.6813 21.9611C24.6813 24.4227 21.6526 25.6579 19.8848 23.9172C19.5592 23.5966 19.031 23.5966 18.7054 23.9172L16.9102 25.685C16.5845 26.0056 16.5845 26.5256 16.9102 26.8462C18.6779 28.5867 17.4234 31.5689 14.9235 31.5689C14.4628 31.5689 14.0895 31.9366 14.0895 32.39V34.8899C14.0895 35.3432 14.4628 35.711 14.9235 35.711C17.4234 35.711 18.6779 38.6931 16.9102 40.4336C16.5845 40.7542 16.5845 41.2742 16.9102 41.5949L18.7055 43.3626C19.0312 43.6832 19.5593 43.6832 19.8849 43.3626C21.6549 41.6199 24.6815 42.8541 24.6815 45.3187C24.6815 45.7724 25.055 46.1399 25.5154 46.1399H28.0544C28.5148 46.1399 28.8883 45.7725 28.8883 45.3187C28.8883 42.8571 31.917 41.6221 33.6847 43.3626C34.0104 43.6832 34.5385 43.6832 34.8641 43.3626L36.6595 41.5949C36.9851 41.2742 36.9851 40.7542 36.6595 40.4336C34.8917 38.6931 36.1461 35.711 38.6462 35.711ZM26.7848 28.4036C23.8478 28.4036 21.4668 30.748 21.4668 33.6399C21.4668 36.5317 23.8478 38.8761 26.7848 38.8761C29.7219 38.8761 32.1029 36.5317 32.1029 33.6399C32.1029 30.748 29.7219 28.4036 26.7848 28.4036Z" fill="#FCA028"/>
</svg>
