<svg width="72" height="72" viewBox="0 0 72 72" fill="none" xmlns="http://www.w3.org/2000/svg">
<path d="M69.8565 61.3423C69.4774 60.7557 68.8369 60.4053 68.1423 60.4053H3.86111C3.16652 60.4053 2.52595 60.7557 2.14686 61.3423C1.76673 61.931 1.7096 62.6606 1.97638 63.2429L2.88592 66.3347C3.77426 68.2967 5.73202 69.5641 7.87403 69.5641H64.1081C66.2491 69.5641 68.2069 68.2967 69.1153 66.2839L70.0079 63.2948C70.2938 62.6606 70.2366 61.931 69.8565 61.3423ZM41.4706 66.2764H30.5222C29.8129 66.2764 29.2305 65.6941 29.2305 64.9847C29.2305 64.2647 29.8129 63.6929 30.5222 63.6929H41.4706C42.1799 63.6929 42.7623 64.2647 42.7623 64.9847C42.7623 65.6941 42.1799 66.2764 41.4706 66.2764Z" fill="#FCA028"/>
<path d="M64.9445 24.2735C64.9445 21.7218 62.8797 19.6465 60.3279 19.6465H56.2303V24.1465C56.2303 24.2418 56.2197 24.3371 56.2092 24.4324H58.3585C59.3539 24.4324 60.1586 25.2477 60.1586 26.243V54.8312C60.1586 55.8265 59.3539 56.6418 58.3585 56.6418H13.6444C12.6492 56.6418 11.8339 55.8265 11.8339 54.8312V26.243C11.8339 25.2477 12.6492 24.4324 13.6444 24.4324H15.7939C15.7833 24.3371 15.7727 24.2418 15.7727 24.1465V19.6465H11.675C9.12331 19.6465 7.05859 21.7218 7.05859 24.2735V59.6171H64.9445V24.2735Z" fill="#FCA028"/>
<path d="M17.6785 25.4787L21.8609 26.2728C22.061 26.3099 22.2336 26.456 22.3003 26.6381C22.4793 27.1527 22.6953 27.6758 22.943 28.1946C23.0277 28.3704 23.0108 28.5874 22.8986 28.7505L20.494 32.2785C20.1255 32.8238 20.1869 33.5332 20.6486 34.0097L23.8663 37.2179C24.3322 37.6838 25.0574 37.7505 25.5891 37.381L29.1117 34.9796C29.2821 34.8662 29.5066 34.8483 29.6835 34.934C30.2267 35.1934 30.7317 35.4031 31.2252 35.5746C31.4253 35.6445 31.566 35.8086 31.6031 36.0151L32.3972 40.1964C32.5169 40.8391 33.0769 41.305 33.7303 41.305H38.2727C38.9259 41.305 39.4861 40.8391 39.6057 40.1974L40.3998 36.0119C40.4359 35.8118 40.5778 35.6434 40.764 35.5757C41.2787 35.3967 41.8006 35.1807 42.3206 34.933C42.4974 34.8483 42.7144 34.8662 42.8775 34.9774L46.4107 37.3799C46.9444 37.7505 47.6698 37.6817 48.1356 37.2179L51.3439 34.0086C51.8055 33.548 51.8753 32.8196 51.508 32.2764L49.1023 28.7484C48.9911 28.5874 48.9742 28.3704 49.06 28.1925C49.3066 27.6758 49.5227 27.1527 49.6995 26.6434C49.7683 26.456 49.942 26.3099 50.1421 26.2728L54.316 25.4798C54.5775 25.4364 54.8273 25.3061 55 25.1314C55.2773 24.8858 55.4309 24.5353 55.4309 24.1457V19.6034C55.4309 18.949 54.9788 18.3973 54.3233 18.2608L50.141 17.4773C49.9388 17.4391 49.7693 17.294 49.7016 17.1013C49.5301 16.6058 49.3194 16.0997 49.0621 15.5607C48.9742 15.3733 48.9911 15.1584 49.1045 14.989L51.5058 11.4652C51.8775 10.9316 51.8097 10.2052 51.3449 9.74145L48.1356 6.52156C47.6739 6.06097 46.9487 5.99531 46.414 6.36807L42.8753 8.77369C42.7134 8.88484 42.4962 8.90178 42.3184 8.81602C41.8006 8.56934 41.2787 8.35336 40.7704 8.17648C40.5819 8.10766 40.4369 7.93511 40.3998 7.73393L39.6046 3.54097C39.4829 2.9004 38.9227 2.43555 38.2727 2.43555H33.7303C33.0802 2.43555 32.52 2.9004 32.3972 3.54206L31.6031 7.73496C31.565 7.93724 31.421 8.10662 31.2283 8.17442C30.7317 8.34697 30.2267 8.55661 29.6824 8.81602C29.5046 8.90178 29.2811 8.88278 29.1149 8.77156L25.5922 6.37014C25.0532 5.99641 24.3269 6.06097 23.8663 6.52156L20.6443 9.74462C20.1911 10.2126 20.1286 10.9358 20.495 11.4631L22.8964 14.9848C23.0118 15.1584 23.0277 15.3733 22.942 15.5576C22.6826 16.0997 22.4729 16.6058 22.3013 17.0992C22.2325 17.294 22.0641 17.4391 21.862 17.4773L17.6711 18.2618C17.0284 18.3963 16.5615 18.9606 16.5615 19.6034V24.1457C16.5615 24.5163 16.7149 24.872 16.9849 25.1262C17.1893 25.3146 17.4318 25.4374 17.6785 25.4787ZM36.0005 13.8401C40.4295 13.8401 44.0337 17.4433 44.0337 21.8734C44.0337 26.3025 40.4295 29.9067 36.0005 29.9067C31.5703 29.9067 27.9661 26.3025 27.9661 21.8734C27.9661 17.4433 31.5703 13.8401 36.0005 13.8401ZM17.6489 24.6338C17.5981 24.6062 17.5568 24.5735 17.5272 24.5449V24.5438C17.5578 24.5734 17.5991 24.6062 17.6489 24.6338Z" fill="#FCA028"/>
<path d="M16.1139 45.1056H55.8864C56.1055 45.1056 56.2835 44.9278 56.2835 44.7086C56.2835 44.4894 56.1055 44.3115 55.8864 44.3115H16.1139C15.8946 44.3115 15.7168 44.4894 15.7168 44.7086C15.7168 44.9278 15.8946 45.1056 16.1139 45.1056Z" fill="#FCA028"/>
<path d="M55.8866 47.9219H16.1139C15.8948 47.9219 15.7168 48.0998 15.7168 48.3189C15.7168 48.5381 15.8948 48.716 16.1139 48.716H55.8866C56.1056 48.716 56.2836 48.5381 56.2836 48.3189C56.2836 48.0998 56.1056 47.9219 55.8866 47.9219Z" fill="#FCA028"/>
<path d="M55.8866 51.5332H16.1139C15.8948 51.5332 15.7168 51.7111 15.7168 51.9303C15.7168 52.1494 15.8948 52.3273 16.1139 52.3273H55.8866C56.1056 52.3273 56.2836 52.1494 56.2836 51.9303C56.2836 51.7111 56.1056 51.5332 55.8866 51.5332Z" fill="#FCA028"/>
</svg>
