<svg width="72" height="72" viewBox="0 0 72 72" fill="none" xmlns="http://www.w3.org/2000/svg">
<path d="M6.53027 50.6252H7.87465V69.7502H12.3746V50.6252H13.719L10.1246 44.873L6.53027 50.6252Z" fill="white"/>
<path d="M59.6246 29.2502H64.1246V10.1252H65.469L61.8746 4.37305L58.2803 10.1252H59.6246V29.2502Z" fill="white"/>
<path d="M49.5 45.6244C54.423 41.9411 57.375 36.1721 57.375 29.8586C57.375 18.9776 48.5224 10.125 37.6414 10.125H34.3586C23.4776 10.125 14.625 18.9776 14.625 29.8586C14.625 36.1721 17.577 41.9411 22.5 45.6244V40.5H27V48.2422L28.125 48.8047V52.875H29.25H33.75V42.75H38.25V52.875H42.75H43.875V48.8047L45 48.2422V31.5H49.5V45.6244ZM47.25 27C46.4164 27 45.6469 26.7581 44.9775 26.3633L39.8632 31.4775C40.2581 32.1469 40.5 32.9164 40.5 33.75C40.5 36.2351 38.4851 38.25 36 38.25C33.9053 38.25 32.1615 36.8123 31.6586 34.875H26.6873C26.298 35.5444 25.5803 36 24.7489 36C23.5058 36 22.4989 34.9931 22.4989 33.75C22.4989 32.5069 23.5058 31.5 24.7489 31.5C25.5791 31.5 26.2969 31.9556 26.6873 32.625H31.6586C32.1604 30.6877 33.9053 29.25 36 29.25C36.8336 29.25 37.6031 29.4919 38.2725 29.8867L43.3868 24.7725C42.9919 24.1031 42.75 23.3336 42.75 22.5C42.75 20.0149 44.7649 18 47.25 18C49.7351 18 51.75 20.0149 51.75 22.5C51.75 24.9851 49.7351 27 47.25 27Z" fill="white"/>
<path d="M31.5 55.125H40.5V57.375H31.5V55.125Z" fill="white"/>
<path d="M29.25 59.625H28.125V60.75C28.125 65.0925 31.6586 68.625 36 68.625C40.3414 68.625 43.875 65.0925 43.875 60.75V59.625H42.75H29.25Z" fill="white"/>
<path d="M5.73862 24.8299L8.92013 28.0125L8.97075 27.9619C9.909 27.0236 11.3108 26.7469 12.5449 27.2509C12.6833 26.0865 12.9195 24.9514 13.2334 23.85C10.7201 22.5326 9 19.9046 9 16.875C9 12.5302 12.5302 9 16.875 9C19.0778 9 21.0656 9.91463 22.4955 11.376C24.1672 10.2983 25.9886 9.43425 27.9304 8.83912L24.8299 5.73862L24.7792 5.78925C23.8387 6.72975 22.4314 7.00763 21.1927 6.49575C19.9271 5.976 19.125 4.78237 19.125 3.44587V3.375H14.625V3.44587C14.625 4.78237 13.8229 5.976 12.5809 6.48562C11.3186 7.00537 9.91237 6.72975 8.97075 5.78813L8.92013 5.73862L5.73862 8.92013L5.78925 8.97075C6.73088 9.91237 7.00875 11.3197 6.49575 12.5573C5.976 13.8229 4.78237 14.625 3.44587 14.625H3.375V19.125H3.44587C4.78237 19.125 5.97487 19.9271 6.4845 21.1691C7.00762 22.4291 6.72975 23.8376 5.787 24.7792L5.73862 24.8299Z" fill="white"/>
<path d="M18.9371 14.2335C18.3645 13.7846 17.658 13.5 16.875 13.5C15.0131 13.5 13.5 15.0131 13.5 16.875C13.5 18.0079 14.0625 19.0103 14.9209 19.6234C15.9772 17.622 17.3419 15.8108 18.9371 14.2335Z" fill="white"/>
<path d="M65.2473 46.1579C64.6241 44.6526 64.7028 42.9887 65.4352 41.5701L61.9286 38.0635C60.6809 38.7081 59.2421 38.8442 57.8887 38.4426C57.4443 39.4945 56.9077 40.5014 56.3069 41.4677C60.2478 43.2194 62.9996 47.1602 62.9996 51.7502C62.9996 57.9636 57.9629 63.0002 51.7496 63.0002C49.6818 63.0002 47.7491 62.4355 46.0852 61.4624C45.9963 62.7032 45.6914 63.8845 45.1953 64.9634C45.5249 65.0331 45.8501 65.1209 46.1651 65.2514C47.6703 65.8746 48.7897 67.1054 49.2723 68.6264H54.2302C54.7151 67.1042 55.8378 65.8724 57.3431 65.2502C58.8483 64.6259 60.5122 64.7046 61.9297 65.4381L65.4374 61.9315C64.7051 60.5117 64.6263 58.8467 65.2507 57.3404C65.8739 55.8351 67.1047 54.7146 68.6257 54.2309V49.273C67.1036 48.787 65.8717 47.6642 65.2473 46.1579Z" fill="white"/>
<path d="M47.1296 49.6933L46.125 50.663V52.8748C46.125 53.4564 45.8966 53.9829 45.5332 54.3823C46.5592 56.8022 48.9566 58.4998 51.75 58.4998C55.4782 58.4998 58.5 55.478 58.5 51.7498C58.5 48.584 56.3197 45.9302 53.379 45.2012C51.6937 46.9247 49.7182 48.3984 47.4727 49.5212L47.1296 49.6933Z" fill="white"/>
<path d="M36 34.875C36.6213 34.875 37.125 34.3713 37.125 33.75C37.125 33.1287 36.6213 32.625 36 32.625C35.3787 32.625 34.875 33.1287 34.875 33.75C34.875 34.3713 35.3787 34.875 36 34.875Z" fill="white"/>
<path d="M47.25 23.625C47.8713 23.625 48.375 23.1213 48.375 22.5C48.375 21.8787 47.8713 21.375 47.25 21.375C46.6287 21.375 46.125 21.8787 46.125 22.5C46.125 23.1213 46.6287 23.625 47.25 23.625Z" fill="white"/>
</svg>
