<svg width="72" height="72" viewBox="0 0 72 72" fill="none" xmlns="http://www.w3.org/2000/svg">
<path d="M37.6637 24.2539C39.9495 22.2877 41.6151 19.7 42.4584 16.8052C39.7916 16.5403 37.2474 15.5531 35.0998 13.95L34.8748 13.7812L34.6498 13.95C32.5017 15.553 29.9572 16.5401 27.29 16.8052C28.1333 19.7 29.799 22.2877 32.0848 24.2539L34.8748 26.6434L37.6637 24.2539Z" fill="white"/>
<path d="M20.25 42.75C19.9517 42.7499 19.6656 42.6314 19.4546 42.4204L17.2046 40.1704L18.7954 38.5796L20.25 40.0342L23.1593 37.125H16.875V43.875H23.625V39.8408L21.0454 42.4204C20.8344 42.6314 20.5483 42.7499 20.25 42.75Z" fill="white"/>
<path d="M3.375 65.25C3.375 66.1451 3.73058 67.0035 4.36351 67.6365C4.99645 68.2694 5.85489 68.625 6.75 68.625C7.64511 68.625 8.50355 68.2694 9.13649 67.6365C9.76942 67.0035 10.125 66.1451 10.125 65.25V32.625H3.375V65.25Z" fill="white"/>
<path d="M39.0131 28.8365C41.4489 26.8126 43.4368 24.3039 44.8503 21.4699C46.2638 18.6359 47.072 15.5388 47.2233 12.3755C42.7738 12.2694 38.4639 10.8008 34.8753 8.16797C31.2869 10.8011 26.9769 12.2697 22.5273 12.3755C22.6781 15.5399 23.4862 18.6383 24.9002 21.4733C26.3141 24.3083 28.3029 26.8178 30.7398 28.8421L34.8753 32.288L39.0131 28.8365ZM30.624 25.9632C27.6159 23.3766 25.5572 19.8601 24.774 15.971C24.7414 15.8079 24.7453 15.6397 24.7856 15.4783C24.8258 15.317 24.9013 15.1665 25.0066 15.0379C25.1119 14.9092 25.2445 14.8055 25.3947 14.7342C25.5449 14.6629 25.7091 14.6257 25.8753 14.6255C28.552 14.6195 31.1555 13.7517 33.3003 12.1505L34.2003 11.4755C34.3951 11.3294 34.6319 11.2505 34.8753 11.2505C35.1188 11.2505 35.3556 11.3294 35.5503 11.4755L36.4503 12.1505C38.595 13.752 41.1987 14.6199 43.8753 14.6255C44.0422 14.6254 44.2069 14.6625 44.3577 14.734C44.5084 14.8055 44.6414 14.9096 44.7469 15.0389C44.8525 15.1681 44.9279 15.3192 44.9679 15.4812C45.0078 15.6432 45.0112 15.812 44.9778 15.9755C44.1946 19.8646 42.1359 23.3811 39.1278 25.9677L35.6066 28.9793C35.4028 29.1536 35.1435 29.2494 34.8753 29.2494C34.6072 29.2494 34.3479 29.1536 34.1441 28.9793L30.624 25.9632Z" fill="white"/>
<path d="M20.25 56.25C19.9517 56.2499 19.6656 56.1314 19.4546 55.9204L17.2046 53.6704L18.7954 52.0796L20.25 53.5342L23.1593 50.625H16.875V57.375H23.625V53.3408L21.0454 55.9204C20.8344 56.1314 20.5483 56.2499 20.25 56.25Z" fill="white"/>
<path d="M32.625 57.375V58.5C32.625 58.7984 32.7435 59.0845 32.9545 59.2955C33.1655 59.5065 33.4516 59.625 33.75 59.625H46.9845L51.2471 57.4875C51.4038 57.4116 51.5759 57.3731 51.75 57.375H55.125V43.875H51.75C51.4517 43.8749 51.1656 43.7564 50.9546 43.5454L46.4546 39.0454C46.2436 38.8344 46.1251 38.5483 46.125 38.25V32.625C45.5283 32.625 44.956 32.8621 44.534 33.284C44.1121 33.706 43.875 34.2783 43.875 34.875V42.75C43.875 43.0484 43.7565 43.3345 43.5455 43.5455C43.3345 43.7565 43.0484 43.875 42.75 43.875H33.75C33.4516 43.875 33.1655 43.9935 32.9545 44.2045C32.7435 44.4155 32.625 44.7016 32.625 45V46.125H41.625V48.375H32.625V50.625H41.625V52.875H32.625V55.125H41.625V57.375H32.625Z" fill="white"/>
<path d="M55.125 60.75V59.625H52.0155L47.7528 61.7625C47.5962 61.8384 47.424 61.8769 47.25 61.875H33.75C32.8548 61.875 31.9964 61.5194 31.3635 60.8865C30.7305 60.2535 30.375 59.3951 30.375 58.5V45C30.375 44.1049 30.7305 43.2465 31.3635 42.6135C31.9964 41.9806 32.8548 41.625 33.75 41.625H41.625V34.875C41.625 33.6815 42.0991 32.5369 42.943 31.693C43.7869 30.8491 44.9315 30.375 46.125 30.375H47.25C47.5483 30.375 47.8345 30.4935 48.0454 30.7045C48.2564 30.9155 48.375 31.2016 48.375 31.5V37.7842L52.2157 41.625H55.125V40.5C55.125 40.2016 55.2435 39.9155 55.4545 39.7045C55.6654 39.4935 55.9516 39.375 56.25 39.375H57.375V3.375H12.375V65.25C12.3708 66.4712 11.9652 67.6571 11.2207 68.625H54C54.8951 68.625 55.7535 68.2694 56.3864 67.6365C57.0194 67.0035 57.375 66.1451 57.375 65.25V61.875H56.25C55.9516 61.875 55.6654 61.7565 55.4545 61.5455C55.2435 61.3345 55.125 61.0484 55.125 60.75ZM25.875 51.0908V58.5C25.875 58.7984 25.7564 59.0845 25.5454 59.2955C25.3345 59.5065 25.0483 59.625 24.75 59.625H15.75C15.4516 59.625 15.1654 59.5065 14.9545 59.2955C14.7435 59.0845 14.625 58.7984 14.625 58.5V49.5C14.625 49.2016 14.7435 48.9155 14.9545 48.7045C15.1654 48.4935 15.4516 48.375 15.75 48.375H24.75C24.9316 48.3785 25.1094 48.4272 25.2675 48.5168L27.3296 46.4546L28.9203 48.0454L25.875 51.0908ZM25.875 37.5908V45C25.875 45.2984 25.7564 45.5845 25.5454 45.7955C25.3345 46.0065 25.0483 46.125 24.75 46.125H15.75C15.4516 46.125 15.1654 46.0065 14.9545 45.7955C14.7435 45.5845 14.625 45.2984 14.625 45V36C14.625 35.7016 14.7435 35.4155 14.9545 35.2045C15.1654 34.9935 15.4516 34.875 15.75 34.875H24.75C24.9315 34.8786 25.1094 34.9273 25.2675 35.0168L27.3296 32.9546L28.9203 34.5454L25.875 37.5908ZM20.25 11.25C20.25 10.9516 20.3685 10.6655 20.5795 10.4545C20.7904 10.2435 21.0766 10.125 21.375 10.125H22.05C26.4553 10.1187 30.7285 8.61925 34.1718 5.87137C34.3714 5.71162 34.6193 5.62458 34.875 5.62458C35.1306 5.62458 35.3785 5.71162 35.5781 5.87137C39.0214 8.61925 43.2946 10.1187 47.7 10.125H48.375C48.6733 10.125 48.9595 10.2435 49.1704 10.4545C49.3814 10.6655 49.5 10.9516 49.5 11.25C49.5046 14.9364 48.6963 18.5784 47.1328 21.9167C45.5692 25.2551 43.2887 28.2076 40.4538 30.564L35.5961 34.614C35.3938 34.783 35.1385 34.8755 34.875 34.8755C34.6114 34.8755 34.3561 34.783 34.1538 34.614L29.2961 30.564C26.461 28.2077 24.1804 25.2553 22.6168 21.9169C21.0532 18.5785 20.2451 14.9364 20.25 11.25Z" fill="white"/>
<path d="M68.625 41.625H57.375V59.625H68.625V41.625Z" fill="white"/>
</svg>
