<svg width="73" height="72" viewBox="0 0 73 72" fill="none" xmlns="http://www.w3.org/2000/svg">
<g clip-path="url(#clip0_111_42)">
<path d="M16.405 45.2438L20.1917 48.9786L26.6585 42.5382C20.4447 35.233 19.1227 25.5825 22.0111 17.4111L30.6161 25.898C30.5427 34.431 37.5864 41.8886 46.777 41.8886C52.1723 41.8884 56.9578 39.2669 59.8948 35.2481L50.1251 25.6121L43.3503 32.2945L18.1549 7.4443V13.0789H13.7364L13.7365 0.00488281H26.992V4.36275L21.2792 4.36289L43.3503 26.1316L50.1251 19.449L62.0372 31.1978C63.9907 25.6891 62.802 19.2112 58.2051 14.6771C52.3155 8.86849 43.0644 8.49632 36.7457 13.4491L29.602 6.40302C39.8926 -2.41991 55.5069 -2.0184 65.3196 7.65987C70.2723 12.5448 72.9999 19.0398 72.9999 25.9483C72.9999 40.2097 61.2364 51.8125 46.7769 51.8126C40.4725 51.8126 34.5085 49.6322 29.7681 45.6347L23.3159 52.0603L27.1179 55.8104L10.7133 71.9906L0 61.4241L16.405 45.2438Z" fill="white"/>
<path d="M37.5752 58.9219H72.9234V63.2799H37.5752V58.9219Z" fill="white"/>
<path d="M24.3193 67.6377H50.8306V71.9956H24.3193V67.6377Z" fill="white"/>
</g>
<defs>
<clipPath id="clip0_111_42">
<rect width="73" height="72" fill="white"/>
</clipPath>
</defs>
</svg>
