<svg width="72" height="72" viewBox="0 0 72 72" fill="none" xmlns="http://www.w3.org/2000/svg">
<g clip-path="url(#clip0_14_158)">
<path d="M65.3722 4.5H33.7398C30.0792 4.5 27.1123 7.46741 27.1123 11.1275V26.7089C28.7844 27.54 30.5911 28.4387 32.2775 29.2769L34.8577 24.1144C36.4199 20.9927 40.2283 19.7243 43.349 21.2838C46.4763 22.8488 47.7435 26.6468 46.178 29.7746L41.5786 38.9756C41.7005 40.1935 41.5923 41.4212 41.249 42.6094H44.2856L36.2766 64.6326C35.8014 65.9388 36.7198 67.4632 38.2596 67.4632C39.1204 67.4632 39.9301 66.932 40.241 66.074L48.774 42.6094H50.2523L58.8721 66.0811C59.1858 66.9348 59.9933 67.4632 60.8535 67.4632C62.2922 67.4632 63.3469 66.0262 62.8322 64.6271L54.7462 42.6094H65.3722C69.0323 42.6094 71.9997 39.642 71.9997 35.9819V11.1275C71.9997 7.46741 69.0323 4.5 65.3722 4.5ZM60.8524 33.5726H51.3882C50.2237 33.5726 49.2789 32.6277 49.2789 31.4632C49.2789 30.2975 50.2237 29.3538 51.3882 29.3538H60.8524C62.0181 29.3538 62.9618 30.2975 62.9618 31.4632C62.9618 32.6277 62.0181 33.5726 60.8524 33.5726ZM60.8524 25.6641H51.3882C50.2237 25.6641 49.2789 24.7203 49.2789 23.5547C49.2789 22.3901 50.2237 21.4453 51.3882 21.4453H60.8524C62.0181 21.4453 62.9618 22.3901 62.9618 23.5547C62.9618 24.7203 62.0181 25.6641 60.8524 25.6641ZM60.8524 17.7567H38.2596C37.0939 17.7567 36.1502 16.8118 36.1502 15.6473C36.1502 14.4827 37.0939 13.5379 38.2596 13.5379H60.8524C62.0181 13.5379 62.9618 14.4827 62.9618 15.6473C62.9618 16.8118 62.0181 17.7567 60.8524 17.7567Z" fill="#FCA028"/>
<path d="M37.114 41.7047C37.4952 40.5879 37.4925 39.4211 37.1706 38.3566L42.4056 27.8877C42.9263 26.8456 42.5045 25.5784 41.4624 25.0576C40.4209 24.5363 39.1536 24.9587 38.6323 26.0008L34.1675 34.9294C31.4989 33.6006 27.4444 31.5846 24.1782 29.9603C21.1393 28.4491 18.9706 27.0939 15.2704 27.0939H13.4066C16.2878 27.0939 18.8591 25.7679 20.5422 23.6926C21.8265 22.1133 22.5945 20.1006 22.5945 17.9072C22.5945 12.832 18.4812 8.71875 13.4055 8.71875C8.33203 8.71875 4.21875 12.832 4.21875 17.9072C4.21875 20.3445 5.16797 22.5593 6.71649 24.2029C8.39081 25.9832 10.7688 27.0939 13.405 27.0945C9.87067 27.0945 6.41547 28.5266 3.92981 31.0188C1.39581 33.5462 0 36.9135 0 40.5005V47.2786C0 50.1965 1.89459 52.6794 4.51868 53.5627V65.3533C4.51868 66.5184 5.46295 67.4626 6.62805 67.4626H20.1841C21.3492 67.4626 22.2935 66.5184 22.2935 65.3533V41.653C24.2935 42.6528 26.9209 43.9662 29.0468 45.0297C30.537 45.7745 32.2784 45.8416 33.8313 45.2098C35.3798 44.5726 36.5735 43.3043 37.1058 41.7294C37.1085 41.7211 37.1113 41.7129 37.114 41.7047Z" fill="#FCA028"/>
</g>
<defs>
<clipPath id="clip0_14_158">
<rect width="72" height="72" fill="white"/>
</clipPath>
</defs>
</svg>
