<svg width="535" height="180" viewBox="0 0 535 180" fill="none" xmlns="http://www.w3.org/2000/svg">
<g clip-path="url(#clip0_2220_49)">
<g filter="url(#filter0_d_2220_49)">
<g filter="url(#filter1_d_2220_49)">
<path d="M66.2108 158C66.2108 158 27.0422 123.49 48.0969 68.3875C48.0969 68.3875 66.6346 22.525 118.196 21C118.196 21 87.7824 31.3155 87.3361 78.0994C87.3361 78.0994 99.3756 57.6643 113.56 47.6635C115.082 46.5912 116.648 45.6184 118.173 44.6584C128.447 38.2085 167.384 17.9404 182.063 66.0246C182.063 66.0246 145.232 18.7847 68.6893 114.683C68.6893 114.683 59.8347 83.2972 71.6237 61.2826C71.6334 61.2826 30.6669 96.2518 66.2108 158Z" fill="white"/>
<path d="M114.86 21.1494C114.86 21.1494 33.7844 30.2545 43.5444 112.335C43.5444 112.335 49.6894 39.4109 114.86 21.1494Z" fill="white"/>
<path d="M182.072 66.0254C182.072 66.0254 148.901 17.9637 69.376 113.837C69.376 113.837 132.62 2.43111 182.072 66.0254Z" fill="white"/>
<path d="M4 82.2731C4 82.2731 103.97 146.423 197.152 46.4756C197.152 46.4756 98.2035 121.705 4 82.2731Z" fill="white"/>
<path d="M76.8213 108.697C76.8213 108.697 116.385 144.976 142.409 104.087C142.409 104.087 112.673 133.062 76.8213 108.697Z" fill="white"/>
<path d="M214.814 33.4444C214.752 35.7065 213.914 37.8786 212.441 39.5962C210.967 41.3138 208.948 42.4724 206.721 42.8778C204.495 43.2832 202.197 42.9106 200.213 41.8226C198.229 40.7346 196.679 38.9973 195.823 36.9021C195.705 36.5811 195.576 36.2343 195.474 35.894C195.371 35.5537 195.287 35.2037 195.226 34.8506C195.165 34.4974 195.133 34.1443 195.098 33.7879L195.075 32.7188C195.131 31.2885 195.488 29.886 196.122 28.6029C196.752 27.3353 197.646 26.2175 198.745 25.3249C199.817 24.454 201.061 23.8204 202.395 23.466C203.893 23.0821 205.459 23.0524 206.97 23.3792C208.482 23.7059 209.896 24.3802 211.101 25.3486C212.306 26.3169 213.269 27.5527 213.913 28.958C214.558 30.3632 214.866 31.8993 214.814 33.4444ZM214.814 33.4444L214.791 32.5775C214.762 32.2886 214.721 32.0028 214.685 31.7171C214.65 31.4314 214.551 31.1585 214.483 30.8792C214.416 30.5998 214.29 30.3366 214.194 30.0669C213.754 29.0144 213.089 28.0709 212.245 27.3026C211.427 26.556 210.456 25.9952 209.401 25.6588C208.389 25.3434 207.325 25.2343 206.271 25.3378C205.196 25.4393 204.155 25.7609 203.21 26.2825C202.265 26.8041 201.438 27.5145 200.78 28.3695C200.122 29.2245 199.647 30.2059 199.384 31.2524C199.122 32.299 199.078 33.3884 199.254 34.4528C199.431 35.5173 199.825 36.5339 200.411 37.4396C200.998 38.3452 201.765 39.1204 202.664 39.717C203.563 40.3136 204.575 40.7187 205.637 40.9072C206.7 41.0956 207.79 41.0634 208.839 40.8125C209.916 40.5524 210.925 40.0629 211.796 39.3774C212.693 38.673 213.425 37.7811 213.941 36.7641C214.056 36.5008 214.181 36.2407 214.287 35.9743C214.393 35.7078 214.48 35.4317 214.551 35.1524C214.621 34.8731 214.669 34.5873 214.717 34.3016L214.814 33.4444Z" fill="white"/>
<path d="M245.374 62.1904V117.036H236.95V87.2647L219.135 116.137H219.067L201.22 87.2422V117.046H192.795V62.1904H193.438L219.122 101.218L244.761 62.1904H245.374Z" fill="white"/>
<path d="M289.496 108.875H264.088L260.425 117.033H251.3L276.542 62.248H277.042L302.284 117.026H293.159L289.496 108.875ZM286.231 101.648L276.808 80.6701L267.353 101.648H286.231Z" fill="white"/>
<path d="M316.667 71.6454V85.3961H336.98V93.7884H316.667V108.64H340.21V117.033H308.243V63.3525H340.21V71.6454H316.667Z" fill="white"/>
<path d="M352.946 64.9643H387.138V69.2825H372.691V117.033H367.477V69.2825H352.95L352.946 64.9643ZM422.596 69.2087H400.623V88.6517H420.361V92.9731H400.623V112.711H422.596V117.033H395.409V64.8873H422.596V69.2087ZM455.985 64.3672C467.604 64.3672 476.247 70.1783 479.971 80.1598H473.871C470.982 73.2315 464.859 68.9229 455.995 68.9229C444.597 68.9229 435.881 77.341 435.881 90.9729C435.881 104.531 444.597 112.949 455.995 112.949C464.859 112.949 470.966 108.628 473.871 101.85H479.971C476.231 111.668 467.598 117.469 455.969 117.469C441.522 117.469 430.494 106.592 430.494 90.9504C430.494 75.3087 441.515 64.3672 455.969 64.3672H455.985ZM523.772 92.6745H495.529V117.033H490.315V64.9643H495.529V88.3531H523.763V64.9643H528.977V117.033H523.763L523.772 92.6745Z" fill="white"/>
<path d="M196.14 140.358L192.204 133.937H193.617L196.77 138.942L199.922 133.937H201.342L197.393 140.358V145.093H196.14V140.358Z" fill="white"/>
<path d="M201.708 139.526C201.704 138.392 202.037 137.281 202.665 136.336C203.293 135.391 204.187 134.654 205.234 134.217C206.282 133.781 207.435 133.665 208.548 133.885C209.662 134.105 210.684 134.65 211.487 135.451C212.29 136.253 212.837 137.275 213.059 138.388C213.281 139.501 213.167 140.654 212.732 141.702C212.298 142.751 211.562 143.646 210.617 144.275C209.673 144.905 208.564 145.24 207.429 145.238C205.916 145.23 204.467 144.625 203.396 143.556C202.325 142.487 201.719 141.04 201.708 139.526ZM211.895 139.526C211.897 138.644 211.638 137.781 211.15 137.046C210.662 136.311 209.967 135.738 209.152 135.398C208.338 135.058 207.441 134.968 206.576 135.138C205.71 135.308 204.914 135.731 204.289 136.353C203.664 136.976 203.237 137.77 203.063 138.635C202.89 139.5 202.976 140.397 203.312 141.213C203.649 142.028 204.219 142.726 204.952 143.217C205.685 143.709 206.547 143.972 207.429 143.973C208.609 143.965 209.738 143.494 210.574 142.661C211.409 141.828 211.884 140.7 211.895 139.52V139.526Z" fill="white"/>
<path d="M215.664 140.768V133.949H216.929V140.759C216.929 142.634 218.146 143.998 219.793 143.998C221.44 143.998 222.657 142.627 222.657 140.759V133.949H223.918V140.768C223.918 143.369 222.162 145.263 219.79 145.263C217.417 145.263 215.664 143.369 215.664 140.768Z" fill="white"/>
<path d="M233.463 145.096L230.339 140.746H228.259V145.096H226.997V133.949H230.291C232.359 133.949 234.047 135.538 234.047 137.503C234.039 138.203 233.806 138.881 233.384 139.439C232.962 139.996 232.372 140.404 231.7 140.601L235.014 145.096H233.463ZM230.339 139.69C231.665 139.69 232.76 138.678 232.76 137.474C232.742 136.851 232.476 136.26 232.022 135.832C231.568 135.404 230.963 135.174 230.339 135.192H228.262V139.686L230.339 139.69Z" fill="white"/>
<path d="M250.954 139.529C250.954 142.932 248.739 145.096 245.268 145.096H242.164V133.949H245.268C248.739 133.943 250.954 136.113 250.954 139.529ZM249.689 139.529C249.689 136.893 247.959 135.192 245.262 135.192H243.422V143.838H245.281C247.965 143.838 249.689 142.149 249.689 139.529Z" fill="white"/>
<path d="M253.568 133.949H254.826V145.096H253.568V133.949Z" fill="white"/>
<path d="M268.497 139.985C268.511 140.682 268.384 141.374 268.123 142.02C267.862 142.666 267.474 143.253 266.98 143.745C266.487 144.237 265.899 144.624 265.252 144.883C264.605 145.141 263.912 145.266 263.216 145.25C262.463 145.253 261.718 145.109 261.022 144.824C260.326 144.539 259.692 144.12 259.158 143.591C258.624 143.061 258.199 142.432 257.908 141.738C257.617 141.044 257.466 140.3 257.462 139.548C257.459 138.796 257.604 138.051 257.888 137.354C258.173 136.658 258.592 136.025 259.122 135.491C259.651 134.956 260.281 134.532 260.974 134.241C261.668 133.95 262.412 133.798 263.164 133.795C264.667 133.857 266.098 134.451 267.203 135.471L266.5 136.514C265.601 135.636 264.413 135.117 263.158 135.053C262.563 135.046 261.972 135.158 261.421 135.382C260.87 135.607 260.369 135.939 259.948 136.36C259.527 136.78 259.195 137.281 258.97 137.832C258.746 138.383 258.634 138.974 258.641 139.569C258.648 140.164 258.774 140.751 259.012 141.297C259.249 141.843 259.593 142.335 260.024 142.746C260.455 143.156 260.963 143.477 261.52 143.688C262.076 143.899 262.669 143.997 263.264 143.976C265.44 143.976 267.155 142.518 267.155 140.547C267.155 140.463 267.155 140.386 267.155 140.325H263.151V139.189H268.449C268.48 139.453 268.496 139.719 268.497 139.985Z" fill="white"/>
<path d="M271.112 133.949H272.371V145.096H271.112V133.949Z" fill="white"/>
<path d="M282.478 135.192H279.248V145.096H277.989V135.192H274.747V133.949H282.478V135.192Z" fill="white"/>
<path d="M290.745 143.262H284.645L283.83 145.095H282.465L287.602 133.774H287.74L292.945 145.095H291.577L290.745 143.262ZM290.261 142.17L287.692 136.436L285.124 142.17H290.261Z" fill="white"/>
<path d="M301.851 143.844V145.096H295.128V133.949H296.386V143.844H301.851Z" fill="white"/>
<path d="M316.138 135.192H312.908V145.096H311.65V135.192H308.404V133.949H316.138V135.192Z" fill="white"/>
<path d="M324.972 145.096L321.861 140.746H319.781V145.096H318.522V133.949H321.816C323.884 133.949 325.573 135.538 325.573 137.503C325.565 138.203 325.332 138.881 324.91 139.439C324.487 139.997 323.897 140.404 323.226 140.601L326.539 145.096H324.972ZM321.839 139.69C323.165 139.69 324.26 138.678 324.26 137.474C324.241 136.851 323.976 136.26 323.522 135.832C323.068 135.404 322.463 135.174 321.839 135.192H319.765V139.686L321.839 139.69Z" fill="white"/>
<path d="M335.944 143.262H329.844L329.028 145.095H327.664L332.801 133.774H332.939L338.098 145.095H336.73L335.944 143.262ZM335.459 142.17L332.891 136.436L330.322 142.17H335.459Z" fill="white"/>
<path d="M349.29 133.919V145.268H349.229L341.584 136.783V145.108H340.326V133.774H340.396L348.031 142.253V133.906L349.29 133.919Z" fill="white"/>
<path d="M351.784 143.103L352.747 142.39C353.036 142.881 353.451 143.286 353.947 143.565C354.444 143.845 355.006 143.987 355.576 143.979C357.033 143.979 358.224 143.193 358.224 142.091C358.224 140.839 356.619 140.239 355.2 139.7C353.832 139.167 352.31 138.496 352.31 136.775C352.31 135.054 353.852 133.779 355.81 133.779C357.463 133.779 358.59 134.685 359.02 135.786L358.057 136.428C357.858 136.003 357.539 135.644 357.141 135.395C356.742 135.146 356.28 135.018 355.81 135.025C354.612 135.025 353.588 135.812 353.588 136.807C353.588 137.886 354.811 138.28 356.253 138.833C357.926 139.513 359.508 140.287 359.508 142.079C359.508 144.005 357.73 145.254 355.588 145.254C353.742 145.247 352.317 144.291 351.784 143.103Z" fill="white"/>
<path d="M363.255 135.172V138.887H367.84V140.145H363.255V145.109H361.996V133.92H368.546V135.172H363.255Z" fill="white"/>
<path d="M370.097 139.526C370.093 138.392 370.426 137.281 371.054 136.336C371.682 135.391 372.576 134.654 373.623 134.217C374.671 133.781 375.824 133.665 376.937 133.885C378.05 134.105 379.073 134.65 379.876 135.451C380.679 136.253 381.226 137.275 381.448 138.388C381.67 139.501 381.556 140.654 381.121 141.702C380.686 142.751 379.95 143.646 379.006 144.275C378.062 144.905 376.953 145.24 375.818 145.238C374.305 145.23 372.856 144.625 371.785 143.556C370.714 142.487 370.108 141.04 370.097 139.526ZM380.284 139.526C380.286 138.644 380.027 137.781 379.539 137.046C379.051 136.311 378.355 135.738 377.541 135.398C376.727 135.058 375.83 134.968 374.965 135.138C374.099 135.308 373.303 135.731 372.678 136.353C372.053 136.976 371.626 137.77 371.452 138.635C371.278 139.5 371.365 140.397 371.701 141.213C372.037 142.028 372.608 142.726 373.341 143.217C374.074 143.709 374.936 143.972 375.818 143.973C376.996 143.962 378.122 143.489 378.955 142.657C379.787 141.824 380.26 140.698 380.271 139.52L380.284 139.526Z" fill="white"/>
<path d="M390.628 145.096L387.517 140.746H385.437V145.096H384.178V133.949H387.472C389.54 133.949 391.226 135.538 391.226 137.503C391.218 138.202 390.986 138.881 390.564 139.438C390.142 139.996 389.553 140.404 388.882 140.601L392.195 145.096H390.628ZM387.505 139.69C388.831 139.69 389.925 138.678 389.925 137.474C389.907 136.851 389.641 136.26 389.188 135.832C388.734 135.404 388.128 135.174 387.505 135.192H385.427V139.686L387.505 139.69Z" fill="white"/>
<path d="M405.249 133.74V145.096H403.99V137.529L399.797 144.913L395.601 137.529V145.109H394.343V133.74H394.487L399.804 142.608L405.124 133.74H405.249Z" fill="white"/>
<path d="M415.719 143.262H409.619L408.8 145.095H407.439L412.576 133.774H412.714L417.873 145.095H416.55L415.719 143.262ZM415.234 142.17L412.665 136.436L410.097 142.17H415.234Z" fill="white"/>
<path d="M425.629 135.192H422.4V145.096H421.141V135.192H417.895V133.949H425.629V135.192Z" fill="white"/>
<path d="M428.009 133.949H429.267V145.096H428.009V133.949Z" fill="white"/>
<path d="M431.88 139.526C431.877 138.392 432.21 137.281 432.838 136.336C433.466 135.391 434.36 134.653 435.408 134.217C436.455 133.781 437.609 133.665 438.722 133.885C439.835 134.105 440.858 134.651 441.661 135.453C442.464 136.255 443.011 137.277 443.232 138.39C443.453 139.503 443.339 140.657 442.904 141.705C442.469 142.753 441.732 143.648 440.788 144.277C439.843 144.906 438.733 145.241 437.598 145.238C436.086 145.23 434.637 144.625 433.567 143.556C432.496 142.487 431.891 141.039 431.88 139.526ZM442.067 139.526C442.07 138.644 441.811 137.781 441.323 137.046C440.835 136.312 440.14 135.738 439.326 135.398C438.512 135.058 437.615 134.968 436.749 135.138C435.884 135.307 435.088 135.73 434.463 136.352C433.837 136.975 433.411 137.768 433.236 138.633C433.062 139.498 433.148 140.395 433.484 141.21C433.82 142.026 434.39 142.724 435.122 143.216C435.854 143.708 436.716 143.971 437.598 143.973C438.779 143.966 439.909 143.496 440.745 142.662C441.582 141.829 442.056 140.7 442.067 139.52V139.526Z" fill="white"/>
<path d="M454.916 133.919V145.268H454.852L447.211 136.783V145.108H445.952V133.774H446.023L453.657 142.253V133.906L454.916 133.919Z" fill="white"/>
<path d="M463.103 133.949H466.634C468.792 133.949 470.554 135.554 470.554 137.545C470.554 139.439 468.792 140.98 466.634 140.98H464.387V145.096H463.103V133.949ZM469.299 137.529C469.299 136.245 468.105 135.192 466.637 135.192H464.387V139.738H466.663C468.117 139.751 469.312 138.755 469.312 137.529H469.299Z" fill="white"/>
<path d="M478.145 143.262H472.045L471.229 145.095H469.868L475.021 133.774H475.159L480.318 145.095H478.948L478.145 143.262ZM477.66 142.17L475.108 136.436L472.539 142.17H477.66Z" fill="white"/>
<path d="M488.986 145.096L485.875 140.746H483.792V145.096H482.536V133.949H485.83C487.898 133.949 489.583 135.538 489.583 137.503C489.576 138.202 489.344 138.881 488.922 139.438C488.5 139.996 487.911 140.404 487.24 140.601L490.553 145.096H488.986ZM485.862 139.69C487.188 139.69 488.283 138.678 488.283 137.474C488.265 136.851 487.999 136.26 487.545 135.832C487.091 135.404 486.486 135.174 485.862 135.192H483.785V139.686L485.862 139.69Z" fill="white"/>
<path d="M499.318 135.192H496.089V145.096H494.83V135.192H491.587V133.949H499.318V135.192Z" fill="white"/>
<path d="M510.661 133.919V145.268H510.6L502.955 136.783V145.108H501.697V133.774H501.767L509.402 142.253V133.906L510.661 133.919Z" fill="white"/>
<path d="M515.114 135.185V138.717H519.698V139.975H515.114V143.847H520.405V145.099H513.855V133.949H520.405V135.185H515.114Z" fill="white"/>
<path d="M529.718 145.096L526.607 140.746H524.527V145.096H523.265V133.949H526.559C528.627 133.949 530.312 135.538 530.312 137.503C530.304 138.202 530.073 138.881 529.651 139.438C529.229 139.996 528.639 140.404 527.969 140.601L531.282 145.096H529.718ZM526.594 139.69C527.92 139.69 529.015 138.678 529.015 137.474C528.997 136.851 528.731 136.26 528.277 135.832C527.823 135.404 527.218 135.174 526.594 135.192H524.517V139.686L526.594 139.69Z" fill="white"/>
<path d="M530.958 126.807H191.424V127.07H530.958V126.807Z" fill="white"/>
</g>
</g>
</g>
<defs>
<filter id="filter0_d_2220_49" x="2" y="19" width="535.282" height="145" filterUnits="userSpaceOnUse" color-interpolation-filters="sRGB">
<feFlood flood-opacity="0" result="BackgroundImageFix"/>
<feColorMatrix in="SourceAlpha" type="matrix" values="0 0 0 0 0 0 0 0 0 0 0 0 0 0 0 0 0 0 127 0" result="hardAlpha"/>
<feOffset dx="2" dy="2"/>
<feGaussianBlur stdDeviation="2"/>
<feComposite in2="hardAlpha" operator="out"/>
<feColorMatrix type="matrix" values="0 0 0 0 0 0 0 0 0 0 0 0 0 0 0 0 0 0 0.21 0"/>
<feBlend mode="normal" in2="BackgroundImageFix" result="effect1_dropShadow_2220_49"/>
<feBlend mode="normal" in="SourceGraphic" in2="effect1_dropShadow_2220_49" result="shape"/>
</filter>
<filter id="filter1_d_2220_49" x="0" y="21" width="535.282" height="145" filterUnits="userSpaceOnUse" color-interpolation-filters="sRGB">
<feFlood flood-opacity="0" result="BackgroundImageFix"/>
<feColorMatrix in="SourceAlpha" type="matrix" values="0 0 0 0 0 0 0 0 0 0 0 0 0 0 0 0 0 0 127 0" result="hardAlpha"/>
<feOffset dy="4"/>
<feGaussianBlur stdDeviation="2"/>
<feComposite in2="hardAlpha" operator="out"/>
<feColorMatrix type="matrix" values="0 0 0 0 0 0 0 0 0 0 0 0 0 0 0 0 0 0 0.23 0"/>
<feBlend mode="normal" in2="BackgroundImageFix" result="effect1_dropShadow_2220_49"/>
<feBlend mode="normal" in="SourceGraphic" in2="effect1_dropShadow_2220_49" result="shape"/>
</filter>
<clipPath id="clip0_2220_49">
<rect width="535" height="180" fill="white"/>
</clipPath>
</defs>
</svg>
